<?xml version="1.0" encoding="UTF-8"?>
<svg id="Layer_2" data-name="Layer 2" xmlns="http://www.w3.org/2000/svg" viewBox="0 0 43.68 24.96">
  <defs>
    <style>
      .cls-1 {
        isolation: isolate;
      }

      .cls-2 {
        fill: #f6e73b;
        stroke-width: 0px;
      }
    </style>
  </defs>
  <g id="ICONS" class="cls-1">
    <g id="sun">
      <path class="cls-2" d="M21.84,20.81l-7.2,4.15-.75-5.69-9.83.25,3.75-4.5L0,12.48l7.81-2.62-3.97-4.5,9.72.65,1.33-6.01,6.95,4.62L28.79,0l1.33,6.01,9.72-.65-3.97,4.5,7.81,2.62-7.81,2.54,3.75,4.5-9.83-.25-.75,5.69-7.2-4.15ZM9.76,12.39c0,3.44,5.41,6.23,12.08,6.23s12.08-2.79,12.08-6.23-5.41-6.23-12.08-6.23-12.08,2.79-12.08,6.23Z"/>
      <ellipse class="cls-2" cx="21.84" cy="12.38" rx="11.39" ry="5.65"/>
    </g>
  </g>
</svg>