<?xml version="1.0" encoding="UTF-8"?>
<svg id="Layer_2" data-name="Layer 2" xmlns="http://www.w3.org/2000/svg" viewBox="0 0 35.59 21.22">
  <defs>
    <style>
      .cls-1 {
        isolation: isolate;
      }

      .cls-2 {
        fill: #2c2c75;
        stroke-width: 0px;
      }
    </style>
  </defs>
  <g id="ICONS" class="cls-1">
    <g id="binoculars">
      <g>
        <path class="cls-2" d="M20.3,17.12s-.09-.05-.1-.08c-.41-1.96-2.39-1.79-2.39-1.79V4.76s.86-.02,1.3.08c.31.06.95.64,1.05.69,0,0,.67.11.82-.03l.28-2.93S21.83.12,24.97,0c3.57-.13,4.67,1.93,4.67,1.93l5.53,10.57-.55-.02c-2.33-2.33-5.39-2.82-8.35-2.28-4.11.75-6.56,3.98-5.47,6.91h-.49Z"/>
        <path class="cls-2" d="M15.33,17.12s.09-.05.1-.08c.41-1.96,2.39-1.79,2.39-1.79V4.76s-.86-.02-1.3.08c-.31.06-.95.64-1.05.69,0,0-.67.11-.82-.03l-.28-2.93S13.8.12,10.67,0c-3.57-.13-4.67,1.93-4.67,1.93L.47,12.51l.55-.02c2.33-2.33,5.39-2.82,8.35-2.28,4.11.75,6.56,3.98,5.47,6.91h.49Z"/>
        <path class="cls-2" d="M14.54,15.88c0,2.95-3.25,5.34-7.27,5.34S0,18.83,0,15.88s3.25-5.34,7.27-5.34,7.27,2.39,7.27,5.34ZM7.27,12.34c-2.78,0-5.03,1.58-5.03,3.54s2.25,3.54,5.03,3.54,5.03-1.58,5.03-3.54-2.25-3.54-5.03-3.54Z"/>
        <path class="cls-2" d="M35.59,15.88c0,2.95-3.25,5.34-7.27,5.34s-7.27-2.39-7.27-5.34,3.25-5.34,7.27-5.34,7.27,2.39,7.27,5.34ZM28.32,12.34c-2.78,0-5.03,1.58-5.03,3.54s2.25,3.54,5.03,3.54,5.03-1.58,5.03-3.54-2.25-3.54-5.03-3.54Z"/>
        <ellipse class="cls-2" cx="7.27" cy="15.88" rx="4.29" ry="2.9"/>
        <ellipse class="cls-2" cx="28.32" cy="15.88" rx="4.29" ry="2.9"/>
      </g>
    </g>
  </g>
</svg>