<?xml version="1.0" encoding="UTF-8"?>
<svg id="Layer_2" data-name="Layer 2" xmlns="http://www.w3.org/2000/svg" viewBox="0 0 43.41 21.77">
  <defs>
    <style>
      .cls-1 {
        isolation: isolate;
      }

      .cls-2 {
        fill: #049a44;
        stroke-width: 0px;
      }
    </style>
  </defs>
  <g id="ICONS" class="cls-1">
    <g id="faq">
      <path class="cls-2" d="M21.76,0L0,10.89l21.76,10.88,21.65-10.88L21.76,0ZM23.66,17.72h-4.04v-3.14h4.04v3.14ZM24.12,11.95c-.58.37-.51,1.65-.51,1.65h-4s-.05-1.31.27-1.84c1.4-2.32,3.6-2.26,3.52-3.67-.03-.64-.85-.93-1.33-.92-1.79.02-1.8,1.44-1.8,1.44h-3.82s-.22-2.62,2.78-4.07c1.29-.62,4.39-.47,5.49.03,1.28.58,2.44,1.68,2.44,3.34s-.26,2.29-3.04,4.04Z"/>
      <path class="cls-2" d="M20.12,17.25h3.04v-2.18h-3.04v2.18Z"/>
      <path class="cls-2" d="M21.81,4.65c1.13,0,2.2.16,2.73.4.8.36,2.15,1.22,2.15,2.87,0,1.37,0,1.84-2.81,3.6-.53.33-.69,1.05-.74,1.57h-3.02c.02-.49.1-.89.19-1.05.64-1.05,1.48-1.58,2.15-2,.78-.49,1.52-.95,1.46-1.97-.05-.97-1.11-1.41-1.85-1.41-1.52.02-2.04.9-2.21,1.44h-2.91c.1-.77.56-2.16,2.48-3.09.47-.23,1.34-.36,2.37-.36"/>
    </g>
  </g>
</svg>