<?xml version="1.0" encoding="UTF-8"?>
<svg id="Layer_2" data-name="Layer 2" xmlns="http://www.w3.org/2000/svg" viewBox="0 0 35.73 21.61">
  <defs>
    <style>
      .cls-1 {
        isolation: isolate;
      }

      .cls-2 {
        fill: #ce2110;
        stroke-width: 0px;
      }
    </style>
  </defs>
  <g id="ICONS" class="cls-1">
    <g id="gift">
      <g>
        <g id="_Mirror_Repeat_" data-name="&amp;lt;Mirror Repeat&amp;gt;">
          <g>
            <path id="X" class="cls-2" d="M17.26,6.71l-.05.02-2.48.79-4.62,1.74-3.27-1.11,3.01-1.08s2.81.47,5.97-.11"/>
            <rect class="cls-2" x="8.45" y="6.2" width="0" height="5" transform="translate(-2.5 13.9) rotate(-71.26)"/>
            <path class="cls-2" d="M9.18,6.84s-1.48-.5-2.11-1.37c-.52-.72-.36-1.9-.36-1.9L.17,5.88l5.91,2.01"/>
            <g>
              <polygon class="cls-2" points="0 6.24 6.06 8.33 6.1 17.6 .01 15.52 0 6.24"/>
              <polygon class="cls-2" points="6.75 8.57 9.99 9.69 9.99 18.93 6.75 17.82 6.75 8.57"/>
            </g>
            <path class="cls-2" d="M17.87,6.32v-.53l-.03.55M12.47,6.88c2.74,0,5.67-.55,5.4-.56v-.66s-8.53.41-8.43-1.66c.19-4.01,8.43,2.33,8.43,2.33v-.98s-1.25-1.92-3.67-3.44C11.98.52,7.39-.45,7.1,3.61c-.22,2.97,3.41,3.27,5.37,3.27Z"/>
            <path class="cls-2" d="M11.43,3.06c1.38.36,4.81,2.37,4.81,2.37,0,0-2.75-.2-3.92-.3-.79-.06-2.42-.37-2.54-1.17-.07-.49.49-1.21,1.65-.91Z"/>
          </g>
        </g>
        <g id="_Mirror_Repeat_-2" data-name="&amp;lt;Mirror Repeat&amp;gt;">
          <g>
            <path id="X-2" data-name="X" class="cls-2" d="M18.48,6.71l.05.02,2.48.79,4.62,1.74,3.27-1.11-3.01-1.08s-2.81.47-5.97-.11"/>
            <rect class="cls-2" x="24.79" y="8.69" width="5" height="0" transform="translate(-1.35 9.22) rotate(-18.74)"/>
            <path class="cls-2" d="M26.56,6.84s1.48-.5,2.11-1.37c.52-.72.36-1.9.36-1.9l6.53,2.3-5.91,2.01"/>
            <polyline class="cls-2" points="17.88 11.87 24.92 9.5 17.88 6.88 17.85 6.88 10.82 9.5 17.85 11.87"/>
            <g>
              <polygon class="cls-2" points="35.73 6.24 29.67 8.33 29.64 17.6 35.72 15.52 35.73 6.24"/>
              <polyline class="cls-2" points="17.88 21.61 25.13 19.14 25.13 9.9 17.88 12.4 17.85 12.4 10.61 9.9 10.61 19.14 17.85 21.61"/>
              <polygon class="cls-2" points="28.98 8.57 25.75 9.69 25.75 18.93 28.98 17.82 28.98 8.57"/>
            </g>
            <path class="cls-2" d="M17.87,6.32v-.53M23.27,6.88c-2.74,0-5.67-.55-5.4-.56v-.66s8.53.41,8.43-1.66c-.19-4.01-8.43,2.33-8.43,2.33v-.98s1.25-1.92,3.67-3.44c2.21-1.38,6.8-2.35,7.1,1.71.22,2.97-3.41,3.27-5.37,3.27Z"/>
            <path class="cls-2" d="M24.31,3.06c-1.38.36-4.81,2.37-4.81,2.37,0,0,2.75-.2,3.92-.3.79-.06,2.42-.37,2.54-1.17.07-.49-.49-1.21-1.65-.91Z"/>
            <path class="cls-2" d="M17.88,4.69s.69-.93,1.81-1.87c1.25-1.05,2.23-1.48,2.23-1.48l-4.04-1.34h-.03l-4.04,1.34s.98.43,2.23,1.48c1.11.93,1.81,1.87,1.81,1.87"/>
          </g>
        </g>
      </g>
    </g>
  </g>
</svg>