<?xml version="1.0" encoding="UTF-8"?>
<svg id="Layer_2" data-name="Layer 2" xmlns="http://www.w3.org/2000/svg" viewBox="0 0 39.13 15.93">
  <defs>
    <style>
      .cls-1 {
        fill: #815f48;
        stroke-width: 0px;
      }

      .cls-2 {
        isolation: isolate;
      }
    </style>
  </defs>
  <g id="ICONS" class="cls-2">
    <g id="lang">
      <path class="cls-1" d="M28.41,15.93l10.72-7.96L28.41,0h0S0,0,0,0v15.93s28.41,0,28.41,0h0ZM9.92,12.15l-.05.29c-.61-.01-1.18-.02-1.7-.02s-1,0-1.43.02l.03-.28.74-.2c.11-.03.21-.08.3-.13s.17-.11.24-.18.13-.13.19-.2c.05-.07.1-.14.15-.21l5.24-7.87.71-.1,1.54,7.87c.05.29.11.49.2.6.08.11.21.18.37.23l.68.18-.04.28c-.61-.01-1.21-.02-1.79-.02s-1.19,0-1.87.02l.03-.28.69-.18c.1-.03.19-.07.25-.12.07-.05.1-.14.1-.28s-.04-.39-.11-.77l-.32-1.74h-3.4l-1.11,1.73c-.16.24-.28.45-.38.62s-.15.29-.15.36c0,.04.02.08.06.11.04.03.1.06.19.09l.65.17ZM13.95,8.51l-.66-3.55-2.27,3.55h2.93ZM24.11,6.43c-.06.2-.14.46-.23.78-.09.32-.26,1.02-.51,2.08l-.46,2.01c-.02.09-.03.17-.03.25,0,.18.08.31.23.38.15.07.43.1.83.09l-.02.25c-.63.18-1.1.27-1.4.27-.28,0-.5-.07-.67-.22-.17-.15-.25-.36-.25-.64,0-.04,0-.11,0-.21-.49.38-.9.65-1.25.83-.35.17-.59.26-.73.26-.62,0-1.11-.21-1.47-.63s-.54-.95-.54-1.57c0-1.12.38-2.06,1.14-2.83.76-.77,1.73-1.15,2.89-1.15.45,0,.96.08,1.53.24.24-.05.52-.12.84-.23l.08.05ZM22.59,7.15c-.35-.18-.7-.27-1.04-.27-.71,0-1.32.33-1.81.99-.49.66-.74,1.39-.74,2.19,0,.46.1.85.29,1.17s.46.48.81.48c.11,0,.3-.06.57-.17.27-.12.62-.31,1.04-.59l.88-3.79ZM22.17,5.7h-.49l-1.33-2.4h1.4l.42,2.4Z"/>
    </g>
  </g>
</svg>